<mxfile host="Electron" modified="2023-10-01T21:06:33.882Z" agent="Mozilla/5.0 (Windows NT 10.0; Win64; x64) AppleWebKit/537.36 (KHTML, like Gecko) draw.io/21.7.5 Chrome/114.0.5735.289 Electron/25.8.1 Safari/537.36" etag="vTOr6lxkqAMhyDIiU3fH" version="21.7.5" type="device" pages="3">
  <diagram name="Page-1" id="4wlBqIgjYJlniH7VaFhM">
    <mxGraphModel dx="2374" dy="764" grid="1" gridSize="10" guides="1" tooltips="1" connect="1" arrows="1" fold="1" page="1" pageScale="1" pageWidth="1100" pageHeight="850" math="0" shadow="0">
      <root>
        <mxCell id="0" />
        <mxCell id="1" parent="0" />
        <mxCell id="IHzmgfIFiW4MAjssABI5-31" value="" style="endArrow=classic;html=1;rounded=0;" parent="1" edge="1">
          <mxGeometry width="50" height="50" relative="1" as="geometry">
            <mxPoint x="110" y="940" as="sourcePoint" />
            <mxPoint x="-230" y="185" as="targetPoint" />
            <Array as="points">
              <mxPoint x="430" y="940" />
              <mxPoint x="430" y="180" />
            </Array>
          </mxGeometry>
        </mxCell>
        <mxCell id="IHzmgfIFiW4MAjssABI5-112" value="" style="edgeStyle=orthogonalEdgeStyle;rounded=0;orthogonalLoop=1;jettySize=auto;html=1;" parent="1" source="p574HZccX3DOZs-h3ecy-1" target="p574HZccX3DOZs-h3ecy-18" edge="1">
          <mxGeometry relative="1" as="geometry" />
        </mxCell>
        <mxCell id="p574HZccX3DOZs-h3ecy-1" value="start" style="rounded=1;whiteSpace=wrap;html=1;" parent="1" vertex="1">
          <mxGeometry x="-292.5" y="70" width="120" height="60" as="geometry" />
        </mxCell>
        <mxCell id="p574HZccX3DOZs-h3ecy-18" value="user has an account" style="rhombus;whiteSpace=wrap;html=1;" parent="1" vertex="1">
          <mxGeometry x="-307.5" y="220" width="150" height="110" as="geometry" />
        </mxCell>
        <mxCell id="p574HZccX3DOZs-h3ecy-19" value="display to user to create an account" style="shape=dataStorage;whiteSpace=wrap;html=1;fixedSize=1;size=10;" parent="1" vertex="1">
          <mxGeometry x="-740" y="355" width="120" height="130" as="geometry" />
        </mxCell>
        <mxCell id="p574HZccX3DOZs-h3ecy-23" value="" style="endArrow=classic;html=1;rounded=0;" parent="1" target="p574HZccX3DOZs-h3ecy-24" edge="1">
          <mxGeometry width="50" height="50" relative="1" as="geometry">
            <mxPoint x="-690" y="490" as="sourcePoint" />
            <mxPoint x="160" y="510" as="targetPoint" />
            <Array as="points" />
          </mxGeometry>
        </mxCell>
        <mxCell id="p574HZccX3DOZs-h3ecy-24" value="confirm registration" style="rounded=0;whiteSpace=wrap;html=1;" parent="1" vertex="1">
          <mxGeometry x="-760" y="570" width="150" height="100" as="geometry" />
        </mxCell>
        <mxCell id="p574HZccX3DOZs-h3ecy-32" value="" style="endArrow=classic;html=1;rounded=0;exitX=0.05;exitY=0.455;exitDx=0;exitDy=0;exitPerimeter=0;" parent="1" source="p574HZccX3DOZs-h3ecy-18" edge="1">
          <mxGeometry width="50" height="50" relative="1" as="geometry">
            <mxPoint x="-320" y="280" as="sourcePoint" />
            <mxPoint x="-700" y="340" as="targetPoint" />
            <Array as="points">
              <mxPoint x="-360" y="270" />
              <mxPoint x="-700" y="270" />
            </Array>
          </mxGeometry>
        </mxCell>
        <mxCell id="p574HZccX3DOZs-h3ecy-37" value="valid user creditials" style="rhombus;whiteSpace=wrap;html=1;" parent="1" vertex="1">
          <mxGeometry x="-300" y="425" width="135" height="105" as="geometry" />
        </mxCell>
        <mxCell id="p574HZccX3DOZs-h3ecy-60" value="" style="endArrow=classic;html=1;rounded=0;exitX=0;exitY=0.5;exitDx=0;exitDy=0;" parent="1" source="p574HZccX3DOZs-h3ecy-37" edge="1">
          <mxGeometry width="50" height="50" relative="1" as="geometry">
            <mxPoint x="-292.50499999999994" y="475.01999999999975" as="sourcePoint" />
            <mxPoint x="-360" y="478" as="targetPoint" />
          </mxGeometry>
        </mxCell>
        <mxCell id="p574HZccX3DOZs-h3ecy-64" value="user creditials are valid" style="rounded=0;whiteSpace=wrap;html=1;" parent="1" vertex="1">
          <mxGeometry x="-60" y="447.5" width="120" height="60" as="geometry" />
        </mxCell>
        <mxCell id="p574HZccX3DOZs-h3ecy-66" value="TRUE" style="text;html=1;align=center;verticalAlign=middle;resizable=0;points=[];autosize=1;strokeColor=none;fillColor=none;" parent="1" vertex="1">
          <mxGeometry x="-50" y="310" width="60" height="30" as="geometry" />
        </mxCell>
        <mxCell id="p574HZccX3DOZs-h3ecy-68" value="FALSE" style="text;html=1;align=center;verticalAlign=middle;resizable=0;points=[];autosize=1;strokeColor=none;fillColor=none;" parent="1" vertex="1">
          <mxGeometry x="-350" y="438" width="60" height="30" as="geometry" />
        </mxCell>
        <mxCell id="p574HZccX3DOZs-h3ecy-79" value="" style="endArrow=classic;html=1;rounded=0;entryX=0.417;entryY=0;entryDx=0;entryDy=0;entryPerimeter=0;" parent="1" edge="1">
          <mxGeometry width="50" height="50" relative="1" as="geometry">
            <mxPoint y="510" as="sourcePoint" />
            <mxPoint x="-189.9599999999998" y="752" as="targetPoint" />
            <Array as="points">
              <mxPoint y="632" />
              <mxPoint x="-105" y="632" />
              <mxPoint x="-190" y="632" />
            </Array>
          </mxGeometry>
        </mxCell>
        <mxCell id="IHzmgfIFiW4MAjssABI5-1" value="Text" style="edgeLabel;html=1;align=center;verticalAlign=middle;resizable=0;points=[];" parent="p574HZccX3DOZs-h3ecy-79" vertex="1" connectable="0">
          <mxGeometry x="-0.8598" y="1" relative="1" as="geometry">
            <mxPoint as="offset" />
          </mxGeometry>
        </mxCell>
        <mxCell id="p574HZccX3DOZs-h3ecy-80" value="main application" style="rounded=0;whiteSpace=wrap;html=1;" parent="1" vertex="1">
          <mxGeometry x="-240" y="760" width="120" height="60" as="geometry" />
        </mxCell>
        <mxCell id="p574HZccX3DOZs-h3ecy-84" value="invalid creditials" style="shape=dataStorage;whiteSpace=wrap;html=1;fixedSize=1;" parent="1" vertex="1">
          <mxGeometry x="-500" y="700" width="130" height="100" as="geometry" />
        </mxCell>
        <mxCell id="p574HZccX3DOZs-h3ecy-88" value="invalid creditials" style="rounded=0;whiteSpace=wrap;html=1;" parent="1" vertex="1">
          <mxGeometry x="-480" y="447.5" width="120" height="60" as="geometry" />
        </mxCell>
        <mxCell id="p574HZccX3DOZs-h3ecy-90" value="" style="endArrow=classic;html=1;rounded=0;entryX=0.6;entryY=0;entryDx=0;entryDy=0;entryPerimeter=0;" parent="1" target="p574HZccX3DOZs-h3ecy-84" edge="1">
          <mxGeometry width="50" height="50" relative="1" as="geometry">
            <mxPoint x="-420" y="510" as="sourcePoint" />
            <mxPoint x="-430" y="560" as="targetPoint" />
            <Array as="points">
              <mxPoint x="-420" y="580" />
            </Array>
          </mxGeometry>
        </mxCell>
        <mxCell id="p574HZccX3DOZs-h3ecy-97" value="" style="endArrow=classic;html=1;rounded=0;" parent="1" edge="1">
          <mxGeometry width="50" height="50" relative="1" as="geometry">
            <mxPoint x="-510" y="760" as="sourcePoint" />
            <mxPoint x="-750" y="425" as="targetPoint" />
            <Array as="points">
              <mxPoint x="-890" y="760" />
              <mxPoint x="-1000" y="760" />
              <mxPoint x="-1000" y="425" />
              <mxPoint x="-910" y="425" />
            </Array>
          </mxGeometry>
        </mxCell>
        <mxCell id="p574HZccX3DOZs-h3ecy-98" style="edgeStyle=orthogonalEdgeStyle;rounded=0;orthogonalLoop=1;jettySize=auto;html=1;exitX=0.5;exitY=1;exitDx=0;exitDy=0;entryX=0.615;entryY=1;entryDx=0;entryDy=0;entryPerimeter=0;" parent="1" source="p574HZccX3DOZs-h3ecy-84" target="p574HZccX3DOZs-h3ecy-84" edge="1">
          <mxGeometry relative="1" as="geometry" />
        </mxCell>
        <mxCell id="4sPWzwoxJ3Yj38sN-TvN-9" value="" style="endArrow=classic;html=1;rounded=0;exitX=0;exitY=0.7;exitDx=0;exitDy=0;exitPerimeter=0;" parent="1" edge="1">
          <mxGeometry width="50" height="50" relative="1" as="geometry">
            <mxPoint x="-750" y="640" as="sourcePoint" />
            <mxPoint x="-230" y="180" as="targetPoint" />
            <Array as="points">
              <mxPoint x="-880" y="640" />
              <mxPoint x="-870" y="190" />
            </Array>
          </mxGeometry>
        </mxCell>
        <mxCell id="IHzmgfIFiW4MAjssABI5-3" value="" style="endArrow=classic;html=1;rounded=0;exitX=0.403;exitY=1.025;exitDx=0;exitDy=0;exitPerimeter=0;" parent="1" source="p574HZccX3DOZs-h3ecy-80" edge="1">
          <mxGeometry width="50" height="50" relative="1" as="geometry">
            <mxPoint x="-190" y="830" as="sourcePoint" />
            <mxPoint x="-190" y="890" as="targetPoint" />
          </mxGeometry>
        </mxCell>
        <mxCell id="IHzmgfIFiW4MAjssABI5-4" value="does aplication have user data?" style="rhombus;whiteSpace=wrap;html=1;" parent="1" vertex="1">
          <mxGeometry x="-260" y="890" width="140" height="110" as="geometry" />
        </mxCell>
        <mxCell id="IHzmgfIFiW4MAjssABI5-8" value="" style="endArrow=classic;html=1;rounded=0;" parent="1" edge="1">
          <mxGeometry width="50" height="50" relative="1" as="geometry">
            <mxPoint x="-120" y="944.52" as="sourcePoint" />
            <mxPoint x="-10" y="944.52" as="targetPoint" />
          </mxGeometry>
        </mxCell>
        <mxCell id="IHzmgfIFiW4MAjssABI5-24" value="FALSE" style="text;html=1;align=center;verticalAlign=middle;resizable=0;points=[];autosize=1;strokeColor=none;fillColor=none;" parent="1" vertex="1">
          <mxGeometry x="-630" y="128" width="60" height="30" as="geometry" />
        </mxCell>
        <mxCell id="IHzmgfIFiW4MAjssABI5-11" value="refresh" style="rounded=0;whiteSpace=wrap;html=1;" parent="1" vertex="1">
          <mxGeometry y="915" width="120" height="60" as="geometry" />
        </mxCell>
        <mxCell id="IHzmgfIFiW4MAjssABI5-34" value="FALSE" style="text;html=1;align=center;verticalAlign=middle;resizable=0;points=[];autosize=1;strokeColor=none;fillColor=none;" parent="1" vertex="1">
          <mxGeometry x="-100" y="898" width="60" height="30" as="geometry" />
        </mxCell>
        <mxCell id="IHzmgfIFiW4MAjssABI5-35" value="TRUE" style="text;html=1;align=center;verticalAlign=middle;resizable=0;points=[];autosize=1;strokeColor=none;fillColor=none;" parent="1" vertex="1">
          <mxGeometry x="-160" y="1028" width="60" height="30" as="geometry" />
        </mxCell>
        <mxCell id="IHzmgfIFiW4MAjssABI5-44" value="" style="endArrow=classic;html=1;rounded=0;exitX=0.5;exitY=1;exitDx=0;exitDy=0;" parent="1" source="IHzmgfIFiW4MAjssABI5-10" edge="1">
          <mxGeometry width="50" height="50" relative="1" as="geometry">
            <mxPoint x="-187.5" y="1150" as="sourcePoint" />
            <mxPoint x="-192.5" y="1230" as="targetPoint" />
          </mxGeometry>
        </mxCell>
        <mxCell id="IHzmgfIFiW4MAjssABI5-45" value="select destination" style="rounded=0;whiteSpace=wrap;html=1;" parent="1" vertex="1">
          <mxGeometry x="-250" y="1230" width="120" height="60" as="geometry" />
        </mxCell>
        <mxCell id="IHzmgfIFiW4MAjssABI5-49" value="" style="endArrow=classic;html=1;rounded=0;" parent="1" edge="1">
          <mxGeometry width="50" height="50" relative="1" as="geometry">
            <mxPoint x="-190.62" y="998" as="sourcePoint" />
            <mxPoint x="-190.62" y="1088" as="targetPoint" />
            <Array as="points" />
          </mxGeometry>
        </mxCell>
        <mxCell id="IHzmgfIFiW4MAjssABI5-50" value="" style="endArrow=classic;html=1;rounded=0;exitX=0.5;exitY=1;exitDx=0;exitDy=0;" parent="1" target="IHzmgfIFiW4MAjssABI5-10" edge="1">
          <mxGeometry width="50" height="50" relative="1" as="geometry">
            <mxPoint x="-187.5" y="1150" as="sourcePoint" />
            <mxPoint x="-192.5" y="1230" as="targetPoint" />
          </mxGeometry>
        </mxCell>
        <mxCell id="IHzmgfIFiW4MAjssABI5-10" value="route user to homepage" style="rounded=0;whiteSpace=wrap;html=1;" parent="1" vertex="1">
          <mxGeometry x="-250" y="1090" width="120" height="60" as="geometry" />
        </mxCell>
        <mxCell id="IHzmgfIFiW4MAjssABI5-51" value="" style="endArrow=classic;html=1;rounded=0;" parent="1" edge="1">
          <mxGeometry width="50" height="50" relative="1" as="geometry">
            <mxPoint x="-190" y="1290" as="sourcePoint" />
            <mxPoint x="-190.62" y="1400" as="targetPoint" />
            <Array as="points" />
          </mxGeometry>
        </mxCell>
        <mxCell id="IHzmgfIFiW4MAjssABI5-52" value="time of depature" style="rounded=0;whiteSpace=wrap;html=1;" parent="1" vertex="1">
          <mxGeometry x="-250" y="1400" width="120" height="60" as="geometry" />
        </mxCell>
        <mxCell id="IHzmgfIFiW4MAjssABI5-58" value="" style="endArrow=classic;html=1;rounded=0;" parent="1" edge="1">
          <mxGeometry width="50" height="50" relative="1" as="geometry">
            <mxPoint x="-198.13" y="1470" as="sourcePoint" />
            <mxPoint x="-198.13" y="1560" as="targetPoint" />
            <Array as="points" />
          </mxGeometry>
        </mxCell>
        <mxCell id="IHzmgfIFiW4MAjssABI5-66" value="" style="endArrow=classic;html=1;rounded=0;" parent="1" target="IHzmgfIFiW4MAjssABI5-67" edge="1">
          <mxGeometry width="50" height="50" relative="1" as="geometry">
            <mxPoint x="-200" y="1690" as="sourcePoint" />
            <mxPoint x="-200" y="1780" as="targetPoint" />
            <Array as="points" />
          </mxGeometry>
        </mxCell>
        <mxCell id="IHzmgfIFiW4MAjssABI5-67" value="&lt;br&gt;number of seats&lt;br&gt;availabe" style="shape=dataStorage;whiteSpace=wrap;html=1;fixedSize=1;" parent="1" vertex="1">
          <mxGeometry x="-270" y="1780" width="140" height="120" as="geometry" />
        </mxCell>
        <mxCell id="IHzmgfIFiW4MAjssABI5-63" value="number of seats&amp;nbsp;&lt;br&gt;available &amp;gt;0" style="rhombus;whiteSpace=wrap;html=1;" parent="1" vertex="1">
          <mxGeometry x="-261.25" y="1560" width="122.5" height="120" as="geometry" />
        </mxCell>
        <mxCell id="IHzmgfIFiW4MAjssABI5-75" value="" style="endArrow=classic;html=1;rounded=0;exitX=0.99;exitY=0.5;exitDx=0;exitDy=0;exitPerimeter=0;" parent="1" source="IHzmgfIFiW4MAjssABI5-63" edge="1">
          <mxGeometry width="50" height="50" relative="1" as="geometry">
            <mxPoint x="-130" y="1600" as="sourcePoint" />
            <mxPoint y="1620" as="targetPoint" />
            <Array as="points" />
          </mxGeometry>
        </mxCell>
        <mxCell id="IHzmgfIFiW4MAjssABI5-80" value="" style="endArrow=classic;html=1;rounded=0;exitX=0.5;exitY=1;exitDx=0;exitDy=0;" parent="1" source="IHzmgfIFiW4MAjssABI5-67" edge="1">
          <mxGeometry width="50" height="50" relative="1" as="geometry">
            <mxPoint x="-210" y="1920" as="sourcePoint" />
            <mxPoint x="-200" y="2000" as="targetPoint" />
          </mxGeometry>
        </mxCell>
        <mxCell id="IHzmgfIFiW4MAjssABI5-81" value="pick a seat number" style="rounded=0;whiteSpace=wrap;html=1;" parent="1" vertex="1">
          <mxGeometry x="-271.25" y="2000" width="147.5" height="60" as="geometry" />
        </mxCell>
        <mxCell id="IHzmgfIFiW4MAjssABI5-83" value="" style="endArrow=classic;html=1;rounded=0;" parent="1" edge="1">
          <mxGeometry width="50" height="50" relative="1" as="geometry">
            <mxPoint x="-200.62" y="2060" as="sourcePoint" />
            <mxPoint x="-200.62" y="2140" as="targetPoint" />
          </mxGeometry>
        </mxCell>
        <mxCell id="IHzmgfIFiW4MAjssABI5-84" value="confirm booking" style="rounded=0;whiteSpace=wrap;html=1;" parent="1" vertex="1">
          <mxGeometry x="-288.12" y="2150" width="181.25" height="60" as="geometry" />
        </mxCell>
        <mxCell id="IHzmgfIFiW4MAjssABI5-86" value="" style="endArrow=classic;html=1;rounded=0;exitX=0.486;exitY=1;exitDx=0;exitDy=0;exitPerimeter=0;" parent="1" source="IHzmgfIFiW4MAjssABI5-84" edge="1">
          <mxGeometry width="50" height="50" relative="1" as="geometry">
            <mxPoint x="-200" y="2280" as="sourcePoint" />
            <mxPoint x="-200" y="2300" as="targetPoint" />
          </mxGeometry>
        </mxCell>
        <mxCell id="IHzmgfIFiW4MAjssABI5-87" value="insert user data" style="rounded=0;whiteSpace=wrap;html=1;" parent="1" vertex="1">
          <mxGeometry x="-283.12" y="2300" width="171.25" height="60" as="geometry" />
        </mxCell>
        <mxCell id="IHzmgfIFiW4MAjssABI5-89" value="" style="endArrow=classic;html=1;rounded=0;exitX=0.5;exitY=1;exitDx=0;exitDy=0;" parent="1" source="IHzmgfIFiW4MAjssABI5-87" edge="1">
          <mxGeometry width="50" height="50" relative="1" as="geometry">
            <mxPoint x="-210" y="2380" as="sourcePoint" />
            <mxPoint x="-197" y="2450" as="targetPoint" />
          </mxGeometry>
        </mxCell>
        <mxCell id="IHzmgfIFiW4MAjssABI5-90" value="proceed to payment" style="rounded=0;whiteSpace=wrap;html=1;" parent="1" vertex="1">
          <mxGeometry x="-283.12" y="2450" width="181.25" height="70" as="geometry" />
        </mxCell>
        <mxCell id="IHzmgfIFiW4MAjssABI5-96" value="" style="endArrow=classic;html=1;rounded=0;" parent="1" edge="1">
          <mxGeometry width="50" height="50" relative="1" as="geometry">
            <mxPoint x="-200.63" y="2520" as="sourcePoint" />
            <mxPoint x="-200.63" y="2620" as="targetPoint" />
          </mxGeometry>
        </mxCell>
        <mxCell id="IHzmgfIFiW4MAjssABI5-97" value="seat successfully reserved" style="shape=dataStorage;whiteSpace=wrap;html=1;fixedSize=1;size=20;" parent="1" vertex="1">
          <mxGeometry x="-250" y="2590" width="120" height="90" as="geometry" />
        </mxCell>
        <mxCell id="IHzmgfIFiW4MAjssABI5-98" value="" style="endArrow=classic;html=1;rounded=0;exitX=0.433;exitY=1.097;exitDx=0;exitDy=0;exitPerimeter=0;" parent="1" source="IHzmgfIFiW4MAjssABI5-97" edge="1">
          <mxGeometry width="50" height="50" relative="1" as="geometry">
            <mxPoint x="-210" y="2760" as="sourcePoint" />
            <mxPoint x="-200" y="2810" as="targetPoint" />
            <Array as="points">
              <mxPoint x="-197" y="2710" />
            </Array>
          </mxGeometry>
        </mxCell>
        <mxCell id="IHzmgfIFiW4MAjssABI5-99" value="receipt issued" style="rounded=0;whiteSpace=wrap;html=1;" parent="1" vertex="1">
          <mxGeometry x="-257.5" y="2810" width="120" height="60" as="geometry" />
        </mxCell>
        <mxCell id="IHzmgfIFiW4MAjssABI5-101" value="" style="endArrow=classic;html=1;rounded=0;" parent="1" edge="1">
          <mxGeometry width="50" height="50" relative="1" as="geometry">
            <mxPoint x="-200.63" y="2870" as="sourcePoint" />
            <mxPoint x="-200.63" y="2960" as="targetPoint" />
          </mxGeometry>
        </mxCell>
        <mxCell id="IHzmgfIFiW4MAjssABI5-102" value="history of reservations" style="shape=document;whiteSpace=wrap;html=1;boundedLbl=1;" parent="1" vertex="1">
          <mxGeometry x="-261.25" y="2960" width="120" height="80" as="geometry" />
        </mxCell>
        <mxCell id="IHzmgfIFiW4MAjssABI5-103" value="" style="endArrow=classic;html=1;rounded=0;" parent="1" edge="1">
          <mxGeometry width="50" height="50" relative="1" as="geometry">
            <mxPoint x="-200.62" y="3030" as="sourcePoint" />
            <mxPoint x="-200.62" y="3110" as="targetPoint" />
            <Array as="points" />
          </mxGeometry>
        </mxCell>
        <mxCell id="IHzmgfIFiW4MAjssABI5-105" value="end of program" style="rounded=1;whiteSpace=wrap;html=1;" parent="1" vertex="1">
          <mxGeometry x="-261" y="3110" width="120" height="60" as="geometry" />
        </mxCell>
        <mxCell id="IHzmgfIFiW4MAjssABI5-111" value="" style="endArrow=classic;html=1;rounded=0;entryX=0.5;entryY=0;entryDx=0;entryDy=0;exitX=0.983;exitY=0.545;exitDx=0;exitDy=0;exitPerimeter=0;" parent="1" source="p574HZccX3DOZs-h3ecy-18" edge="1">
          <mxGeometry width="50" height="50" relative="1" as="geometry">
            <mxPoint x="-100" y="250" as="sourcePoint" />
            <mxPoint x="0.05" y="447.5" as="targetPoint" />
            <Array as="points">
              <mxPoint y="275" />
              <mxPoint x="0.05" y="340" />
            </Array>
          </mxGeometry>
        </mxCell>
        <mxCell id="IHzmgfIFiW4MAjssABI5-113" value="" style="endArrow=classic;html=1;rounded=0;entryX=0;entryY=0.5;entryDx=0;entryDy=0;" parent="1" target="p574HZccX3DOZs-h3ecy-64" edge="1">
          <mxGeometry width="50" height="50" relative="1" as="geometry">
            <mxPoint x="-155" y="478" as="sourcePoint" />
            <mxPoint x="-105" y="428" as="targetPoint" />
          </mxGeometry>
        </mxCell>
        <mxCell id="IHzmgfIFiW4MAjssABI5-123" value="" style="endArrow=classic;html=1;rounded=0;entryX=0.5;entryY=0;entryDx=0;entryDy=0;" parent="1" target="p574HZccX3DOZs-h3ecy-37" edge="1">
          <mxGeometry width="50" height="50" relative="1" as="geometry">
            <mxPoint x="-230" y="350" as="sourcePoint" />
            <mxPoint x="-180" y="300" as="targetPoint" />
            <Array as="points">
              <mxPoint x="-230" y="330" />
            </Array>
          </mxGeometry>
        </mxCell>
        <mxCell id="IHzmgfIFiW4MAjssABI5-124" value="" style="endArrow=classic;html=1;rounded=0;entryX=1;entryY=0.333;entryDx=0;entryDy=0;entryPerimeter=0;" parent="1" edge="1">
          <mxGeometry width="50" height="50" relative="1" as="geometry">
            <mxPoint x="70" y="1570" as="sourcePoint" />
            <mxPoint x="-130" y="1424.9799999999996" as="targetPoint" />
            <Array as="points">
              <mxPoint x="70" y="1425" />
            </Array>
          </mxGeometry>
        </mxCell>
        <mxCell id="IHzmgfIFiW4MAjssABI5-126" value="the vehicle&amp;nbsp;&lt;br&gt;is full" style="shape=dataStorage;whiteSpace=wrap;html=1;fixedSize=1;" parent="1" vertex="1">
          <mxGeometry x="5" y="1560" width="135" height="140" as="geometry" />
        </mxCell>
      </root>
    </mxGraphModel>
  </diagram>
  <diagram id="LTRpwxp1Llc_YUpVIhhP" name="Page-2">
    <mxGraphModel dx="1034" dy="764" grid="1" gridSize="10" guides="1" tooltips="1" connect="1" arrows="1" fold="1" page="1" pageScale="1" pageWidth="1100" pageHeight="850" math="0" shadow="0">
      <root>
        <mxCell id="0" />
        <mxCell id="1" parent="0" />
      </root>
    </mxGraphModel>
  </diagram>
  <diagram id="9mvEHneD5fMJCc3PlLlP" name="Page-3">
    <mxGraphModel dx="1034" dy="764" grid="1" gridSize="10" guides="1" tooltips="1" connect="1" arrows="1" fold="1" page="1" pageScale="1" pageWidth="1100" pageHeight="850" math="0" shadow="0">
      <root>
        <mxCell id="0" />
        <mxCell id="1" parent="0" />
      </root>
    </mxGraphModel>
  </diagram>
</mxfile>
